<?xml version="1.0" encoding="iso-8859-1"?>
<!-- Generator: Adobe Illustrator 16.0.0, SVG Export Plug-In . SVG Version: 6.00 Build 0)  -->
<!DOCTYPE svg PUBLIC "-//W3C//DTD SVG 1.1//EN" "http://www.w3.org/Graphics/SVG/1.1/DTD/svg11.dtd">
<svg version="1.1" id="Capa_1" xmlns="http://www.w3.org/2000/svg" xmlns:xlink="http://www.w3.org/1999/xlink" x="0px" y="0px"
	 width="513px" height="513px" viewBox="0 0 513 513" style="enable-background:new 0 0 513 513;" xml:space="preserve">
<g>
	<g>
		<path d="M256.5,0C114.833,0,0,114.833,0,256.5S114.833,513,256.5,513S513,398.167,513,256.5S398.167,0,256.5,0z M256.5,472.922
			c-119.53,0-216.422-96.893-216.422-216.422c0-119.53,96.892-216.422,216.422-216.422c119.53,0,216.422,96.892,216.422,216.422
			C472.922,376.029,376.03,472.922,256.5,472.922z"/>
		<path d="M133.98,237.119c-9.394,8.673-6.982,27.396,5.385,41.863c12.368,14.449,29.996,19.131,39.374,10.427
			c9.378-8.644,6.967-27.397-5.401-41.832C160.97,233.142,143.342,228.445,133.98,237.119z"/>
		<path d="M339.333,244.257c-11.006,15.625-11.694,34.521-1.55,42.224c10.129,7.67,27.257,1.313,38.247-14.325
			c10.989-15.593,11.679-34.473,1.55-42.191C367.45,222.277,350.308,228.68,339.333,244.257z"/>
		<path d="M226.629,240.625c16.517-3.977,25.111-28.65,19.179-55.107c-5.887-26.458-24.078-44.681-40.595-40.705
			c-16.501,4.008-25.08,28.681-19.194,55.139C191.952,226.379,210.128,244.602,226.629,240.625z"/>
		<path d="M309.557,144.813c-16.5-3.977-34.677,14.247-40.595,40.705s2.661,51.131,19.192,55.107
			c16.486,3.976,34.678-14.247,40.596-40.673C334.684,173.495,326.058,148.821,309.557,144.813z"/>
		<path d="M256.5,263.014c-39.374,0-68.932,62.699-68.932,83.443c0,51.005,29.558-1.613,68.932-1.613
			c39.391,0,68.932,52.618,68.932,1.613C325.432,325.713,295.891,263.014,256.5,263.014z"/>
	</g>
</g>
</svg>
