<?xml version="1.0" ?>
<svg id="Layer_1" style="enable-background:new 0 0 128 128;" version="1.1" viewBox="0 0 128 128" xml:space="preserve" xmlns="http://www.w3.org/2000/svg" xmlns:xlink="http://www.w3.org/1999/xlink">
  <g>
    <path d="M22,54c7.7,0,14-6.3,14-14s-6.3-14-14-14S8,32.3,8,40S14.3,54,22,54z M22,34c3.3,0,6,2.7,6,6s-2.7,6-6,6s-6-2.7-6-6   S18.7,34,22,34z"/>
    <path d="M78,16c0-7.7-6.3-14-14-14S50,8.3,50,16s6.3,14,14,14S78,23.7,78,16z M58,16c0-3.3,2.7-6,6-6s6,2.7,6,6s-2.7,6-6,6   S58,19.3,58,16z"/>
    <path d="M78,112c0-7.7-6.3-14-14-14s-14,6.3-14,14s6.3,14,14,14S78,119.7,78,112z M64,118c-3.3,0-6-2.7-6-6s2.7-6,6-6s6,2.7,6,6   S67.3,118,64,118z"/>
    <path d="M22,102c7.7,0,14-6.3,14-14s-6.3-14-14-14S8,80.3,8,88S14.3,102,22,102z M22,82c3.3,0,6,2.7,6,6s-2.7,6-6,6s-6-2.7-6-6   S18.7,82,22,82z"/>
    <path d="M106,54c7.7,0,14-6.3,14-14s-6.3-14-14-14s-14,6.3-14,14S98.3,54,106,54z M106,34c3.3,0,6,2.7,6,6s-2.7,6-6,6s-6-2.7-6-6   S102.7,34,106,34z"/>
    <path d="M106,102c7.7,0,14-6.3,14-14s-6.3-14-14-14s-14,6.3-14,14S98.3,102,106,102z M106,82c3.3,0,6,2.7,6,6s-2.7,6-6,6   s-6-2.7-6-6S102.7,82,106,82z"/>
    <path d="M40,64c0,13.2,10.8,24,24,24c13.2,0,24-10.8,24-24S77.2,40,64,40C50.8,40,40,50.8,40,64z M64,48c8.8,0,16,7.2,16,16   s-7.2,16-16,16s-16-7.2-16-16S55.2,48,64,48z"/>
  </g>
</svg>
