<?xml version="1.0" ?><!DOCTYPE svg  PUBLIC '-//W3C//DTD SVG 1.1//EN'  'http://www.w3.org/Graphics/SVG/1.1/DTD/svg11.dtd'><svg height="100%" style="fill-rule:evenodd;clip-rule:evenodd;stroke-linejoin:round;stroke-miterlimit:2;" version="1.1" viewBox="0 0 64 64" width="100%" xml:space="preserve" xmlns="http://www.w3.org/2000/svg" xmlns:serif="http://www.serif.com/" xmlns:xlink="http://www.w3.org/1999/xlink"><g transform="matrix(1,0,0,1,-76,-156)"><g id="Artboard1" transform="matrix(1,0,0,1,76,156)"><rect height="64" style="fill:none;" width="64" x="0" y="0"/><g transform="matrix(1,0,0,1,-76,-156)"><path d="M108,158.75C91.856,158.75 78.75,171.856 78.75,188C78.75,204.144 91.856,217.25 108,217.25C124.144,217.25 137.25,204.144 137.25,188C137.25,171.856 124.144,158.75 108,158.75ZM108,161.25C122.764,161.25 134.75,173.236 134.75,188C134.75,202.764 122.764,214.75 108,214.75C93.236,214.75 81.25,202.764 81.25,188C81.25,173.236 93.236,161.25 108,161.25Z"/></g><g transform="matrix(0.96369,0,0,1,-71.425,-156)"><path d="M90.773,183.316C102.597,180.196 113.729,180.813 123.944,186.457C125.923,187.55 128.452,186.889 129.587,184.982C130.722,183.074 130.036,180.637 128.056,179.543C115.897,172.826 102.665,171.917 88.589,175.63C86.389,176.211 85.091,178.405 85.694,180.526C86.296,182.647 88.572,183.897 90.773,183.316ZM90.088,180.905C89.268,181.121 88.42,180.656 88.196,179.865C87.971,179.075 88.455,178.258 89.275,178.042C102.644,174.514 115.217,175.332 126.766,181.712C127.504,182.12 127.759,183.028 127.336,183.738C126.913,184.449 125.971,184.695 125.234,184.288C114.409,178.307 102.619,177.599 90.088,180.905Z"/></g><g transform="matrix(0.999444,0.0333322,-0.0333322,0.999444,-69.9327,-150.056)"><path d="M92.475,182.534C103.691,179.683 110.6,179.665 121.788,185.102C123.39,185.88 125.322,185.212 126.1,183.61C126.879,182.008 126.21,180.076 124.609,179.298C111.735,173.041 103.791,172.999 90.885,176.28C89.159,176.718 88.114,178.476 88.553,180.202C88.992,181.927 90.749,182.973 92.475,182.534ZM91.859,180.111C91.471,180.21 91.075,179.974 90.976,179.586C90.877,179.197 91.113,178.801 91.501,178.703C103.752,175.589 111.295,175.607 123.516,181.546C123.877,181.722 124.027,182.157 123.852,182.517C123.677,182.878 123.241,183.029 122.881,182.853C111.039,177.099 103.73,177.094 91.859,180.111Z"/></g><g transform="matrix(0.999491,0.0318945,-0.0318945,0.999491,-70.1969,-141.909)"><path d="M94.195,182.383C103.363,180.088 109.103,179.726 118.026,184.234C119.446,184.951 121.181,184.381 121.899,182.961C122.616,181.541 122.046,179.805 120.626,179.088C110.201,173.821 103.505,174.108 92.794,176.79C91.251,177.177 90.312,178.744 90.698,180.287C91.084,181.83 92.651,182.77 94.195,182.383ZM93.587,179.958C93.382,180.01 93.174,179.885 93.123,179.68C93.072,179.475 93.197,179.267 93.401,179.216C103.443,176.701 109.725,176.381 119.498,181.319C119.687,181.415 119.763,181.645 119.668,181.834C119.572,182.022 119.342,182.098 119.153,182.003C109.579,177.166 103.424,177.495 93.587,179.958Z"/></g></g></g></svg>